<svg width="28" height="27" fill="none" xmlns="http://www.w3.org/2000/svg"><g clip-path="url(#a)"><path d="M22.938 4.5H5.063C3.902 4.5 3 5.445 3 6.563v12.375C3 20.098 3.902 21 5.063 21h17.875A2.063 2.063 0 0 0 25 18.937V6.563c0-1.117-.945-2.062-2.063-2.062Zm0 2.063v1.761c-.989.817-2.536 2.02-5.801 4.598-.73.558-2.149 1.933-3.137 1.89-1.031.043-2.45-1.332-3.18-1.89-3.265-2.578-4.812-3.781-5.758-4.598V6.563h17.875ZM5.063 18.938v-7.95c.945.774 2.363 1.89 4.468 3.567.946.73 2.621 2.363 4.469 2.32 1.805.043 3.438-1.59 4.426-2.32a700.557 700.557 0 0 1 4.512-3.567v7.95H5.063Z" fill="#C4C4C4"/></g><defs><clipPath id="a"><path fill="#fff" d="M0 0h28v27H0z"/></clipPath></defs></svg>